<svg width="107" height="52" viewBox="0 0 107 52" fill="none" xmlns="http://www.w3.org/2000/svg">
<g clip-path="url(#clip0_77_20)">
<path d="M41.8077 39.1614V13.0514L45.0538 12.5131V21.588C45.623 21.3698 46.2124 21.2088 46.8132 21.1074C47.4457 20.9938 48.0869 20.9359 48.7295 20.9344C50.1113 20.9344 51.2649 21.1331 52.1905 21.5306C53.0594 21.8848 53.8211 22.4614 54.4 23.2032C54.9693 23.968 55.3694 24.8464 55.5735 25.7795C55.8175 26.8645 55.9356 27.9742 55.9255 29.0865V39.1614H52.7187V29.7787C52.7187 27.574 52.4057 26.0166 51.7797 25.1066C51.1537 24.1966 50.0328 23.7415 48.4168 23.7414C47.7529 23.7397 47.0908 23.8103 46.442 23.9522C45.968 24.0438 45.5033 24.179 45.0538 24.356V39.1614H41.8077ZM65.4286 36.8922C66.2368 36.8922 66.9603 36.8666 67.599 36.8153C68.2378 36.764 68.7657 36.6999 69.1829 36.623V31.3167C68.6902 31.1728 68.1866 31.0699 67.6771 31.0091C67.0609 30.9303 66.4403 30.8918 65.8192 30.8938C65.23 30.893 64.6416 30.938 64.0593 31.0284C63.5285 31.1045 63.0134 31.2668 62.5342 31.5089C62.1077 31.7259 61.7339 32.0346 61.4392 32.4131C61.1418 32.8185 60.9903 33.3136 61.0095 33.8171C61.0095 34.9707 61.4071 35.7718 62.2024 36.2204C62.9976 36.669 64.0731 36.8929 65.4286 36.8922ZM65.1158 20.8959C66.2763 20.866 67.4334 21.0351 68.5376 21.3957C69.3824 21.6786 70.1518 22.1522 70.7867 22.78C71.3671 23.3818 71.7844 24.1232 71.9988 24.9334C72.2407 25.8359 72.3592 26.7674 72.3508 27.702V38.8528C71.5947 38.9809 70.5974 39.135 69.3591 39.3149C68.0961 39.4958 66.8218 39.5855 65.5461 39.5833C64.576 39.5853 63.6077 39.502 62.6521 39.3342C61.7729 39.1888 60.9258 38.8896 60.1493 38.4501C59.4219 38.0298 58.8156 37.4268 58.3894 36.7002C57.9462 35.9568 57.7245 35.0083 57.7245 33.8546C57.6944 32.9406 57.9324 32.0379 58.409 31.259C58.8581 30.561 59.46 29.9757 60.1688 29.5478C60.9307 29.0947 61.764 28.7761 62.6327 28.6057C63.5528 28.414 64.49 28.3174 65.4296 28.3174C66.6929 28.3158 67.9523 28.4577 69.1839 28.7404V27.8563C69.1855 27.3321 69.1264 26.8095 69.0079 26.299C68.8888 25.7747 68.6451 25.2873 68.2976 24.8786C67.9501 24.4698 67.5092 24.1519 67.0127 23.9522C66.3209 23.6852 65.5828 23.561 64.8423 23.5869C63.8596 23.5758 62.878 23.6533 61.9091 23.8184C61.2603 23.9267 60.6199 24.0811 59.9928 24.2805L59.6017 21.665C60.0449 21.4599 60.7814 21.2805 61.8112 21.1267C62.9056 20.9683 64.0101 20.8911 65.1158 20.8959ZM73.7976 30.2786C73.7976 28.6635 74.0583 27.2663 74.5797 26.0871C75.0632 24.9592 75.7994 23.959 76.7307 23.1646C77.6668 22.3828 78.7512 21.8006 79.918 21.4534C81.1804 21.0744 82.4919 20.8865 83.8093 20.8959C84.692 20.8956 85.5738 20.9534 86.449 21.0688C87.3973 21.201 88.3329 21.4132 89.2459 21.7033L88.5021 24.4344C87.7371 24.1504 86.9439 23.9506 86.1361 23.8382C85.4161 23.7483 84.6913 23.7034 83.9657 23.7036C83.0666 23.6982 82.1712 23.8211 81.3065 24.0689C80.5092 24.2925 79.769 24.6857 79.1359 25.2219C78.4993 25.7803 77.9977 26.4774 77.6693 27.26C77.2808 28.2172 77.0943 29.2451 77.1217 30.2786C77.0971 31.2707 77.2699 32.2578 77.6301 33.1818C77.9425 33.9521 78.4316 34.6373 79.0575 35.1813C79.7035 35.7246 80.4566 36.1243 81.2671 36.354C82.1954 36.6197 83.1569 36.7492 84.1219 36.7385C84.9256 36.7403 85.7286 36.6953 86.5271 36.6039C87.3862 36.493 88.2315 36.2929 89.0497 36.007L89.519 38.6603C88.6193 38.9903 87.689 39.2286 86.7421 39.3717C85.7321 39.5178 84.7128 39.5885 83.6924 39.5833C82.3333 39.5985 80.9804 39.3973 79.6839 38.9872C78.5333 38.6245 77.4687 38.0292 76.5553 37.2376C75.6628 36.4415 74.9667 35.4476 74.5218 34.3344C74.0164 33.0437 73.7704 31.6652 73.7978 30.2783L73.7976 30.2786ZM97.614 29.3558C98.3179 29.8685 99.1131 30.5158 99.9996 31.2976C100.886 32.0794 101.766 32.9192 102.639 33.8171C103.513 34.7145 104.341 35.6309 105.123 36.5664C105.817 37.3794 106.445 38.2475 107.001 39.162H103.167C102.621 38.2995 102.007 37.483 101.33 36.7203C100.6 35.8871 99.8239 35.086 99.0027 34.3169C98.1815 33.5478 97.36 32.8426 96.5382 32.2011C95.717 31.5602 94.9805 31.0219 94.3287 30.5861V39.1614H91.0842V13.0514L94.3303 12.5131V28.7787C95.7641 27.5482 97.1981 26.3241 98.6321 25.1064C100.013 23.9407 101.307 22.6748 102.504 21.3188H106.297C105.044 22.7588 103.691 24.1083 102.25 25.3572C100.672 26.7409 99.1264 28.0737 97.6142 29.3556L97.614 29.3558Z" fill="black"/>
<path fill-rule="evenodd" clip-rule="evenodd" d="M0.299652 10.8829V48.2721L5.97817 44.8238V7.48065L0.299652 10.8829Z" fill="black"/>
<path d="M5.97817 7.17926C6.05765 7.17926 6.13387 7.21101 6.19007 7.26753C6.24627 7.32405 6.27784 7.4007 6.27784 7.48063V44.8237C6.27783 44.8756 6.26449 44.9267 6.23912 44.9719C6.21374 45.0171 6.17719 45.0549 6.133 45.0817L0.454483 48.53C0.409011 48.5576 0.357058 48.5726 0.303945 48.5734C0.250833 48.5741 0.198469 48.5607 0.152218 48.5344C0.105974 48.5082 0.0674915 48.4701 0.0407082 48.424C0.0139249 48.3779 -0.000197412 48.3254 -0.000213605 48.272V10.8829C-0.000231663 10.8307 0.013237 10.7794 0.0388726 10.734C0.0645082 10.6886 0.101431 10.6507 0.146025 10.6239L5.82474 7.22165C5.87115 7.19388 5.92416 7.17923 5.97817 7.17926ZM5.6785 44.6536V8.01104L0.599323 11.0543V47.738L5.6785 44.6536Z" fill="white"/>
<path fill-rule="evenodd" clip-rule="evenodd" d="M11.6567 10.8829L11.6567 48.272L5.97819 44.8237L5.97819 7.48064L11.6567 10.8829Z" fill="black"/>
<path d="M5.97818 7.17924C6.03219 7.17921 6.0852 7.19386 6.13161 7.22164L11.8101 10.6241C11.8547 10.6509 11.8916 10.6888 11.9173 10.7342C11.9429 10.7796 11.9564 10.8309 11.9564 10.8831L11.9564 48.272C11.9563 48.3254 11.9422 48.3778 11.9154 48.4239C11.8887 48.47 11.8502 48.5082 11.8039 48.5344C11.7577 48.5607 11.7053 48.5741 11.6522 48.5733C11.5991 48.5726 11.5471 48.5576 11.5017 48.53L5.82315 45.0817C5.77896 45.0549 5.74241 45.017 5.71703 44.9718C5.69166 44.9266 5.67832 44.8756 5.67831 44.8237L5.67831 7.48061C5.67831 7.40069 5.70988 7.32403 5.76608 7.26751C5.82228 7.211 5.8985 7.17924 5.97798 7.17924H5.97818ZM11.357 11.0543L6.27785 8.01103L6.27785 44.6535L11.357 47.738L11.357 11.0543Z" fill="white"/>
<path fill-rule="evenodd" clip-rule="evenodd" d="M0.299652 48.2503V10.9072L5.97817 14.3095V44.8264L11.6567 48.2501V48.2962L5.97817 51.6986L0.299652 48.2503Z" fill="black"/>
<path d="M5.97819 52C5.92361 52 5.87007 51.985 5.82336 51.9566L0.14484 48.5083C0.100652 48.4815 0.0640995 48.4437 0.0387239 48.3985C0.0133483 48.3533 9.63287e-06 48.3023 0 48.2504V10.9073C0.00014774 10.8541 0.0142498 10.802 0.0408778 10.7561C0.0675058 10.7103 0.105714 10.6723 0.151632 10.6461C0.197683 10.6198 0.249841 10.6062 0.302797 10.6068C0.355752 10.6073 0.407613 10.622 0.453099 10.6493L6.13162 14.0508C6.17621 14.0775 6.21313 14.1154 6.23877 14.1608C6.2644 14.2062 6.27787 14.2575 6.27785 14.3097V44.6558L11.8117 47.991C11.8561 48.0177 11.8929 48.0556 11.9184 48.1009C11.9439 48.1462 11.9573 48.1973 11.9574 48.2494V48.2954C11.9574 48.3476 11.9439 48.3989 11.9183 48.4443C11.8926 48.4897 11.8557 48.5276 11.8111 48.5544L6.13162 51.9576C6.0852 51.9854 6.03219 52.0001 5.97819 52ZM0.599337 48.0802L5.97918 51.3473L11.1109 48.2733L5.82416 45.085C5.77976 45.0582 5.74301 45.0204 5.71749 44.9751C5.69197 44.9298 5.67854 44.8786 5.67852 44.8266V14.4809L0.599337 11.4377V48.0802Z" fill="white"/>
<path fill-rule="evenodd" clip-rule="evenodd" d="M17.9843 41.0928V3.70367L23.6628 0.301392L29.3413 3.70367V41.0928L23.6628 37.6445L17.9843 41.0928Z" fill="black"/>
<path d="M29.3413 41.3941C29.2868 41.3941 29.2332 41.3791 29.1865 41.3507L23.6628 37.9955L18.1391 41.3507C18.0937 41.3783 18.0417 41.3933 17.9887 41.394C17.9356 41.3948 17.8832 41.3814 17.837 41.3552C17.7908 41.3289 17.7523 41.2908 17.7255 41.2447C17.6988 41.1986 17.6846 41.1462 17.6846 41.0928V3.70364C17.6846 3.65143 17.6981 3.60011 17.7237 3.55471C17.7494 3.50931 17.7863 3.47139 17.8309 3.44466L23.5094 0.0423768C23.5558 0.0146012 23.6087 -6.10352e-05 23.6627 -6.10352e-05C23.7167 -6.10352e-05 23.7697 0.0146012 23.8161 0.0423768L29.4946 3.44466C29.5392 3.47139 29.5761 3.50931 29.6017 3.55471C29.6274 3.60011 29.6408 3.65143 29.6408 3.70364V41.0928C29.6408 41.1727 29.6092 41.2493 29.553 41.3059C29.4968 41.3624 29.4206 41.3941 29.3411 41.3941H29.3413ZM23.6628 37.3431C23.7174 37.3431 23.7709 37.3581 23.8177 37.3865L29.0417 40.5587V3.87502L23.6628 0.652151L18.284 3.87502V40.5587L23.508 37.3865C23.5547 37.3581 23.6082 37.3431 23.6628 37.3431Z" fill="white"/>
<path fill-rule="evenodd" clip-rule="evenodd" d="M23.6628 7.13024L23.6628 44.5193L17.9843 41.0711L17.9843 3.72796L23.6628 7.13024Z" fill="black"/>
<path d="M17.9843 3.42656C18.0383 3.42653 18.0913 3.44118 18.1377 3.46896L23.8163 6.87143C23.8608 6.89817 23.8978 6.93609 23.9234 6.98149C23.949 7.02689 23.9625 7.07821 23.9625 7.13041L23.9625 44.5193C23.9625 44.5727 23.9484 44.6252 23.9216 44.6713C23.8948 44.7174 23.8563 44.7555 23.8101 44.7817C23.7638 44.808 23.7114 44.8214 23.6583 44.8206C23.6052 44.8199 23.5533 44.8049 23.5078 44.7773L17.8293 41.329C17.7851 41.3022 17.7485 41.2644 17.7232 41.2192C17.6978 41.174 17.6845 41.1229 17.6844 41.071L17.6844 3.72793C17.6844 3.648 17.716 3.57135 17.7722 3.51483C17.8284 3.45831 17.9046 3.42656 17.9841 3.42656H17.9843ZM23.3632 7.30159L18.284 4.25834L18.284 40.9009L23.3632 43.9853L23.3632 7.30159Z" fill="white"/>
<path fill-rule="evenodd" clip-rule="evenodd" d="M29.3285 3.72778V41.1169L23.65 44.5192V27.5869L11.6691 34.371L5.97818 31.1158L23.6498 20.8019V7.17607L29.3285 3.72778Z" fill="black"/>
<path d="M29.3285 3.42639C29.408 3.42639 29.4842 3.45814 29.5404 3.51466C29.5966 3.57118 29.6282 3.64783 29.6282 3.72776V41.1169C29.6282 41.1691 29.6148 41.2204 29.5891 41.2658C29.5635 41.3112 29.5266 41.3491 29.482 41.3759L23.8035 44.7781C23.758 44.8054 23.7061 44.8201 23.6531 44.8206C23.6002 44.8212 23.548 44.8076 23.502 44.7813C23.4559 44.755 23.4176 44.7168 23.391 44.6708C23.3644 44.6248 23.3503 44.5724 23.3504 44.5192V28.1025L11.8161 34.6338C11.7711 34.6594 11.7202 34.6729 11.6685 34.6729C11.6167 34.6729 11.5659 34.6594 11.5209 34.6338L5.82995 31.379C5.78419 31.3527 5.74612 31.3149 5.71956 31.2691C5.69301 31.2234 5.67891 31.1714 5.67868 31.1184C5.67846 31.0655 5.69212 31.0134 5.71829 30.9674C5.74446 30.9214 5.78222 30.8832 5.82776 30.8566L23.3502 20.6301V7.17605C23.3502 7.12415 23.3635 7.07313 23.3889 7.02793C23.4143 6.98273 23.4508 6.9449 23.495 6.91808L29.1735 3.46979C29.2203 3.44138 29.2739 3.42637 29.3285 3.42639ZM29.0289 40.9457V4.26179L23.9497 7.34623V20.8019C23.9498 20.8547 23.936 20.9067 23.9099 20.9525C23.8837 20.9984 23.8459 21.0365 23.8005 21.063L6.57972 31.1124L11.6699 34.0256L23.503 27.3251C23.5486 27.2993 23.6001 27.2859 23.6524 27.2864C23.7048 27.2868 23.7561 27.301 23.8013 27.3275C23.8464 27.3541 23.8839 27.3921 23.9099 27.4377C23.936 27.4834 23.9497 27.5351 23.9497 27.5877V43.9896L29.0289 40.9457Z" fill="white"/>
<path fill-rule="evenodd" clip-rule="evenodd" d="M0.29966 48.272L0.29966 10.8829L5.97818 7.48064V24.4129L17.9591 17.6286L23.65 20.884L5.97838 31.198L5.97838 44.8237L0.29966 48.272Z" fill="black"/>
<path d="M0.299679 48.5734C0.248081 48.5734 0.197365 48.56 0.152441 48.5344C0.106197 48.5082 0.0677147 48.4701 0.0409317 48.424C0.0141487 48.3779 2.67029e-05 48.3255 9.53674e-06 48.2721L9.53674e-06 10.8829C-7.62939e-06 10.8307 0.0134583 10.7794 0.0390949 10.734C0.0647297 10.6886 0.101654 10.6507 0.146248 10.624L5.82476 7.22168C5.87026 7.19441 5.92213 7.17975 5.97509 7.1792C6.02806 7.17865 6.08022 7.19222 6.12626 7.21854C6.17231 7.24486 6.2106 7.28299 6.23723 7.32903C6.26386 7.37507 6.27788 7.42739 6.27786 7.48066V23.8974L17.8121 17.366C17.8571 17.3404 17.908 17.3269 17.9597 17.3269C18.0115 17.3269 18.0623 17.3404 18.1074 17.366L23.7983 20.6208C23.8442 20.6471 23.8823 20.6851 23.9089 20.731C23.9355 20.7768 23.9496 20.8289 23.9497 20.882C23.9498 20.9349 23.9361 20.9869 23.9099 21.0327C23.8837 21.0786 23.8459 21.1167 23.8005 21.1432L6.27806 31.3698L6.27806 44.8238C6.27805 44.8757 6.26471 44.9267 6.23934 44.9719C6.21396 45.0171 6.17741 45.0549 6.13322 45.0817L0.454506 48.53C0.407789 48.5584 0.354254 48.5734 0.299679 48.5734ZM0.599346 11.0541L0.599346 47.738L5.67853 44.6536L5.67853 31.198C5.67843 31.1451 5.69217 31.0931 5.71837 31.0473C5.74456 31.0014 5.78229 30.9633 5.82776 30.9368L23.0485 20.8875L17.9583 17.9742L6.12523 24.6747C6.07963 24.7005 6.02811 24.7139 5.97578 24.7134C5.92345 24.713 5.87215 24.6988 5.82697 24.6723C5.78179 24.6457 5.74432 24.6077 5.71827 24.5621C5.69223 24.5164 5.67853 24.4647 5.67853 24.4121V8.01027L0.599346 11.0541Z" fill="white"/>
</g>
<defs>
<clipPath id="clip0_77_20">
<rect width="107" height="52" fill="white"/>
</clipPath>
</defs>
</svg>
